<svg width="63" height="65" viewBox="0 0 63 65" fill="none" xmlns="http://www.w3.org/2000/svg">
<path d="M15.3563 46.3118C17.5875 44.5514 20.0813 43.1634 22.8375 42.1478C25.5938 41.1322 28.4813 40.6243 31.5 40.6243C34.5187 40.6243 37.4062 41.1322 40.1625 42.1478C42.9188 43.1634 45.4125 44.5514 47.6437 46.3118C49.175 44.4612 50.3672 42.3622 51.2203 40.015C52.0734 37.6678 52.5 35.1625 52.5 32.4993C52.5 26.4959 50.4547 21.3839 46.3641 17.1634C42.2734 12.9429 37.3187 10.8327 31.5 10.8327C25.6812 10.8327 20.7266 12.9429 16.6359 17.1634C12.5453 21.3839 10.5 26.4959 10.5 32.4993C10.5 35.1625 10.9266 37.6678 11.7797 40.015C12.6328 42.3622 13.825 44.4612 15.3563 46.3118ZM31.5 35.2077C28.9188 35.2077 26.7422 34.2936 24.9703 32.4655C23.1984 30.6374 22.3125 28.3917 22.3125 25.7285C22.3125 23.0653 23.1984 20.8197 24.9703 18.9915C26.7422 17.1634 28.9188 16.2493 31.5 16.2493C34.0812 16.2493 36.2578 17.1634 38.0297 18.9915C39.8016 20.8197 40.6875 23.0653 40.6875 25.7285C40.6875 28.3917 39.8016 30.6374 38.0297 32.4655C36.2578 34.2936 34.0812 35.2077 31.5 35.2077ZM31.5 59.5827C27.8687 59.5827 24.4562 58.8717 21.2625 57.4499C18.0687 56.028 15.2906 54.0983 12.9281 51.6608C10.5656 49.2233 8.69531 46.357 7.31719 43.0618C5.93906 39.7667 5.25 36.2459 5.25 32.4993C5.25 28.7528 5.93906 25.232 7.31719 21.9368C8.69531 18.6417 10.5656 15.7754 12.9281 13.3379C15.2906 10.9004 18.0687 8.9707 21.2625 7.54883C24.4562 6.12695 27.8687 5.41602 31.5 5.41602C35.1313 5.41602 38.5438 6.12695 41.7375 7.54883C44.9313 8.9707 47.7094 10.9004 50.0719 13.3379C52.4344 15.7754 54.3047 18.6417 55.6828 21.9368C57.0609 25.232 57.75 28.7528 57.75 32.4993C57.75 36.2459 57.0609 39.7667 55.6828 43.0618C54.3047 46.357 52.4344 49.2233 50.0719 51.6608C47.7094 54.0983 44.9313 56.028 41.7375 57.4499C38.5438 58.8717 35.1313 59.5827 31.5 59.5827Z" fill="#003399"/>
</svg>
