<svg width="50" height="50" viewBox="0 0 50 50" fill="none" xmlns="http://www.w3.org/2000/svg">
<path opacity="0.4" d="M25 45.8333C25.6771 45.8333 26.3427 45.6588 26.9312 45.3265C30.4421 43.1781 34.51 40.5902 37.5 37.5L10.9131 10.9131L10.4167 11.4583C7.82283 14.645 6.25 18.4036 6.25 22.7621C6.25 33.1535 15.0081 40.3367 23.0687 45.3265C23.6573 45.6588 24.3229 45.8333 25 45.8333Z" fill="#626262"/>
<path d="M29.1663 29.1667C28.0688 29.8279 26.3743 30.2083 24.9997 30.2083C20.9726 30.2083 17.708 26.9437 17.708 22.9167C17.708 21.5421 18.0884 19.8474 18.7497 18.75" stroke="#626262" stroke-width="3.125" stroke-linecap="round"/>
<path d="M23.958 15.6988C24.2982 15.6502 24.6459 15.625 24.9997 15.625C29.0268 15.625 32.2913 18.8896 32.2913 22.9167C32.2913 23.2704 32.2661 23.6181 32.2176 23.9583" stroke="#626262" stroke-width="3.125" stroke-linecap="round"/>
<path d="M37.5 37.4999C34.51 40.5901 30.4421 43.178 26.9312 45.3264C26.3427 45.6587 25.6771 45.8333 25 45.8333C24.3229 45.8333 23.6573 45.6587 23.0687 45.3264C15.0081 40.3366 6.25 33.1535 6.25 22.762C6.25 18.4035 7.82283 14.6449 10.4167 11.4583" stroke="#626262" stroke-width="3.125" stroke-linecap="round"/>
<path d="M15.625 6.72498C18.4037 5.10123 21.616 4.16675 25 4.16675C35.1471 4.16675 43.75 12.5688 43.75 22.7622C43.75 26.2863 42.7375 29.4528 41.0831 32.2917" stroke="#626262" stroke-width="3.125" stroke-linecap="round"/>
<path d="M4.16699 4.16675L45.8337 45.8334" stroke="#626262" stroke-width="3.125" stroke-linecap="round" stroke-linejoin="round"/>
</svg>
