<?xml version="1.0" encoding="UTF-8"?>
<svg id="Layer_1" xmlns="http://www.w3.org/2000/svg" version="1.1" viewBox="0 0 657.5 184.3">
  <!-- Generator: Adobe Illustrator 29.8.3, SVG Export Plug-In . SVG Version: 2.1.1 Build 3)  -->
  <defs>
    <style>
      .st0 {
        fill: #ffcd0a;
      }

      .st1 {
        fill: #24408f;
      }
    </style>
  </defs>
  <g>
    <path class="st0" d="M565.4,184.3c-50.8,0-92.1-41.3-92.1-92.1S514.6,0,565.4,0s92.1,41.3,92.1,92.1-41.3,92.1-92.1,92.1Z"/>
    <path class="st1" d="M588.6,128.2c-32.5.5-55.8-33-32.5-60.3,20.6-22,36.9,3.8,21.7,14.1,1.2-1.5,1.4-3.8.6-5.6-3.8,6.5-21.2,10.3-17.1,18.6-4.8.4-10.8,5.3-7.5,10.4,4.8-4.7,13.2-2.2,19.7-2,19.5.6,37.5-8.1,41-27.2.7-4.6,0-16.7-13.3-25.1-9.5-6.1-20.8-9-32.1-9s-28,4.5-38.9,13.4c-11.3,8.6-18.4,21.7-18.4,36.8,2.2,55.3,79.3,66.3,107.3,24.7-8.3,7-18.9,11.2-30.5,11.2ZM570.8,94.8c-.7.5-1.6.7-2.4.7h0c-.7,0-1.3-.1-1.9-.4,0,0,0,0,0,0h0c.7-2.7,4-4.4,6.5-3.2-.3,1.2-1.1,2.3-2.2,3ZM609.1,63.9c2.3,22.7-21.7,24.4-21.7,24.4,20.2-6.3,21.7-24.4,21.7-24.4ZM596.1,61.6c-.4-2.2-1.2-4.3-2.2-6.2,11.4,11.6,3.7,32.5-12.5,33.3,10.6-3.7,17.2-15.8,14.7-27Z"/>
  </g>
  <g>
    <path class="st1" d="M197.6,56.7l-7.5,13.5c-.3.5-.7.7-1.2.7h-7.8c-.5,0-1-.3-1.2-.7l-7.5-13.5c-.5-.9.2-2.1,1.2-2.1h5.3c.5,0,1,.3,1.3.8l3.5,7.2c.5,1.1,2,1.1,2.6,0l3.6-7.2c.2-.5.7-.8,1.3-.8h5.2c1.1,0,1.8,1.2,1.2,2.1Z"/>
    <path class="st1" d="M299.9,56.7l-7.5,13.5c-.3.5-.7.7-1.2.7h-7.8c-.5,0-1-.3-1.2-.7l-7.5-13.5c-.5-.9.2-2.1,1.2-2.1h5.3c.5,0,1,.3,1.3.8l3.5,7.2c.5,1.1,2,1.1,2.6,0l3.6-7.2c.2-.5.7-.8,1.3-.8h5.2c1.1,0,1.8,1.2,1.2,2.1Z"/>
    <path class="st1" d="M331.9,65c-.2-.5-.2-1.1,0-1.6,1.2-1.9,2.7-3.9,4.5-6.1,2.1-2.4,4.5-4.8,7.3-7.2,2.7-2.4,5.7-4.6,8.9-6.6,2.7-1.7,5.4-3.1,8.1-4.3.8-.4,1.8,0,2.2.9l1.6,3.9c.3.8,0,1.8-.9,2.1-2.6,1.1-5.2,2.3-7.6,3.8-2.9,1.7-5.7,3.6-8.3,5.7-2.6,2.1-5,4.4-7.2,6.8-1.6,1.7-3,3.5-4.4,5.4-.7,1-2.3.9-2.8-.2l-1.3-2.7Z"/>
    <path class="st1" d="M418.4,66.6l4.8-.8c-1-.5-1.9-1.2-2.7-2.2-.7-1-1.1-2.1-1.1-3.4,0-2.5.8-4.4,2.5-5.7,1.7-1.4,3.9-2,6.7-2s5.2.5,7.1,1.6l-1.7,4.5c-.8-.4-1.5-.7-2.3-.8-.8-.2-1.5-.2-2.3-.2-1.2,0-2.1.4-2.8,1.1-.7.7-1,1.6-1,2.8s.2,1.6.7,2.2c.5.6,1.1,1.1,1.9,1.4,1.1-.2,2.2-.4,3.2-.5,1-.1,1.8-.2,2.7-.3.8,0,1.5-.2,2-.2v5.4c-1,0-2.3.2-4,.4-1.7.2-3.5.4-5.4.6-1.9.2-3.6.4-5.1.6-1.5.2-2.6.4-3.3.5v-4.8Z"/>
    <g>
      <path class="st1" d="M136.4,108.3c0,1.1-.9,1.9-1.9,1.9h-3.1c-2,0-3.6-.3-4.8-.9-1-.5-2.1-1.4-3.3-2.7s-.5-1-.5-1.5,0-.7,0-1.1c0-.7,0-1.4,0-2.1v-13.2c0-1.1-.9-1.9-1.9-1.9h-10.1c-1.1,0-1.9.9-1.9,1.9v12.1c0,3.5-.6,6-1.8,7.4-1.2,1.4-3.2,2.1-5.9,2.1h-4.4c-1.1,0-1.9-.9-1.9-1.9v-19.7c0-1.1-.9-1.9-1.9-1.9h-10.1c-1.1,0-1.9.9-1.9,1.9v19.7c0,1.1-.9,1.9-1.9,1.9h-15.6c-1.1,0-1.9-.9-1.9-1.9v-26.1c0-1.1-.9-1.9-1.9-1.9h-10c-1.1,0-1.9.9-1.9,1.9v26.1c0,1.1-.9,1.9-1.9,1.9h-23.9c-2.5,0-4.4-.7-5.7-2.1-1.4-1.4-2.1-3.3-2.1-5.9s.1-3.5.4-5.3c.1-1,.3-1.9.5-2.9.2-1.2-.7-2.3-1.9-2.3H4.1c-.8,0-1.5.5-1.8,1.2s-.6,1.7-.9,2.6c-.4,1.4-.8,2.9-1,4.4-.2,1.5-.4,3-.4,4.5,0,5.3,1.5,9.4,4.5,12.3,3,3,7,4.4,12.2,4.4h87.9c3.1,0,5.9-.5,8.2-1.6,1.8-.8,3.4-1.9,4.8-3.3.7-.7,1.9-.8,2.7,0,1.5,1.3,3,2.4,4.7,3.3,2.2,1.1,4.4,1.7,6.7,1.7h16.8c1.1,0,1.9-.9,1.9-1.9v-37.1c0-1.1-.9-1.9-1.9-1.9h-10.1c-1.1,0-1.9.9-1.9,1.9v26.1Z"/>
      <path class="st1" d="M233.9,108.2c0,1.1-.9,2-2,2h-12s0,0,0,0,0,0,0,0h-14c-1.1,0-2-.9-2-2v-26c0-1.1-.9-2-2-2h-11.1c-5.2,0-9.9.8-14.1,2.4-4.2,1.6-7.5,4-10,7.3-2.5,3.2-3.7,7.2-3.7,12s1.7,10.7,5.3,14.1c3.5,3.4,8.6,5.2,15.4,5.2h5.6c.5,0,.8.4.8.8h0c0,2.5-.8,4.5-2.5,6.1-1.6,1.6-4,2.4-7.1,2.4s-4.1-.3-6.2-.8c-1.6-.4-3.2-1-4.9-1.9s-2.2-.1-2.7.8l-3.4,6.4c-.5,1-.1,2.2.9,2.7,2,1,4.2,1.8,6.5,2.4,3,.8,6.2,1.1,9.8,1.1,7.5,0,13.2-1.8,17.2-5.4,3.5-3.2,5.5-7.5,5.9-12.9s.9-1.9,2-1.9h14.1s0,0,0,0,0,0,0,0h25.8c1.1,0,2-.9,2-2v-36.9c0-1.1-.9-2-2-2h-9.9c-1.1,0-2,.9-2,2v26ZM190.1,108.2c0,1.1-.9,2-2,2h-2.4c-2.9,0-5-.7-6.4-2.2-1.4-1.5-2.1-3.7-2.1-6.6s1-5.6,2.9-7.4c1.9-1.8,4.5-2.7,7.8-2.7h.3c1.1,0,2,.9,2,2v15Z"/>
      <path class="st1" d="M440.2,80.3h-9.3c-1.3,0-2.3,1-2.3,2.3v25.3c0,1.3-1,2.3-2.3,2.3h-11.6c0,0,0,0-.2,0h-1.7c-1.3,0-2.3-1-2.3-2.3v-25.3c0-1.3-1-2.3-2.3-2.3h-9.3c-1.3,0-2.3,1-2.3,2.3v27.6h-14.3c0,0-.1,0-.2,0h-1.6c-1.3,0-2.3-1-2.3-2.3v-12c0-6.4-2-11.2-5.9-14.3-3.9-3.1-9.9-4.7-18-4.7h-1.7c1-1.3,2.2-2.6,3.7-3.9,1.5-1.3,3.2-2.5,5-3.6,1.9-1.2,3.9-2.2,6.1-3.2,1.4-.6,2.9-1.1,4.3-1.6,1.3-.4,1.9-1.8,1.4-3l-3.3-8.2c-.5-1.2-1.8-1.7-3-1.3-4.2,1.7-8,3.6-11.4,5.9-4,2.7-7.4,5.7-10.4,9.1-1.5,1.7-2.8,3.5-4.1,5.3-1.1,1.7-2.1,3.5-3,5.4s-.2.6-.2,1v6.8c0,1.3,1,2.3,2.3,2.3h11.6c3.8,0,6.8.9,9,2.6,2.2,1.7,3.3,4.1,3.3,7.1v10.3c0,1.3-1,2.3-2.3,2.3h-34.6c-1.3,0-2.3-1-2.3-2.3v-51c0-1.3-1-2.3-2.3-2.3h-9.3c-1.3,0-2.3,1-2.3,2.3v60c0,2.7-.4,5-1.3,7-.8,2-2.1,3.5-3.9,4.5-1.8,1-4,1.6-6.7,1.6h-1.7c-3.4,0-6.1-1.2-8.2-3.5-2-2.4-3.1-5.5-3.1-9.5s.2-5.1.7-8.2c.3-2.1.8-4.2,1.3-6.3.4-1.5-.7-2.9-2.2-2.9h-7.8c-.9,0-1.7.5-2.1,1.3-.7,1.3-1.2,2.7-1.8,4.2-.7,2-1.2,4-1.6,6.1-.4,2.1-.5,4.1-.5,6.2,0,4.6,1,8.9,3,12.7,2,3.8,4.8,6.7,8.6,8.7,1.8.9,3.8,1.6,5.9,2.1,2.2.5,4.6.7,7.3.7h2.4c7.5,0,13.4-1.7,17.8-5.1,3.9-3.1,6.4-7.5,7.3-13.2.2-1.1,1.1-1.9,2.3-1.9h55c0,0,.1,0,.2,0h40.7c0,0,0,0,.2,0h17.2c1.3,0,2.3-1.1,2.3-2.3v-36.3c0-1.3-1-2.3-2.3-2.3Z"/>
    </g>
  </g>
  <rect class="st1" x="388.8" y="130.7" width="12.5" height="12.5" rx="6.2" ry="6.2"/>
  <rect class="st1" x="372.5" y="130.7" width="12.5" height="12.5" rx="6.2" ry="6.2"/>
  <rect class="st1" x="227.5" y="130.7" width="12" height="12" rx="6" ry="6"/>
  <rect class="st1" x="211.9" y="130.7" width="12" height="12" rx="6" ry="6"/>
  <rect class="st1" x="220.2" y="143.9" width="11.1" height="11.1" rx="5.6" ry="5.6"/>
  <rect class="st1" x="30.6" y="72.2" width="12.5" height="12.5" rx="6.2" ry="6.2"/>
  <rect class="st1" x="14.4" y="72.2" width="12.5" height="12.5" rx="6.2" ry="6.2"/>
</svg>