<svg width="125" height="34" viewBox="0 0 125 34" fill="none" xmlns="http://www.w3.org/2000/svg">
<path d="M16.509 33.9376C7.40635 33.9376 0 26.325 0 16.9688C0 7.61264 7.40635 0 16.509 0C25.6116 0 33.018 7.61264 33.018 16.9688C33.018 26.325 25.6116 33.9376 16.509 33.9376Z" fill="#FFCC00"/>
<path d="M20.6583 23.6156C14.8447 23.7057 10.6557 17.5419 14.8367 12.4995C18.524 8.44763 21.4546 13.2035 18.7151 15.0862C18.9221 14.8079 18.962 14.374 18.8186 14.063C18.1337 15.2663 15.0199 15.962 15.7526 17.4928C14.9004 17.5664 13.8173 18.4669 14.4067 19.4082C15.2747 18.5405 16.7719 19.0153 17.9346 19.0317C21.4387 19.1463 24.6481 17.5419 25.2852 14.022C25.4047 13.1789 25.2852 10.9524 22.9041 9.38898C21.1998 8.26755 19.185 7.72729 17.1542 7.72729C14.6456 7.72729 12.129 8.56223 10.1858 10.1994C8.15507 11.7874 6.88086 14.1939 6.88086 16.9852C7.27905 27.1764 21.0883 29.19 26.1135 21.5447C24.6322 22.8298 22.7289 23.5992 20.6503 23.5992L20.6583 23.6156ZM17.4727 17.4682C17.3453 17.5501 17.186 17.5992 17.0427 17.5992C16.9232 17.5992 16.8117 17.5828 16.7002 17.5337V17.5173C16.8197 17.0098 17.409 16.7069 17.863 16.9198C17.8072 17.1408 17.6718 17.3454 17.4648 17.4682H17.4727ZM24.3296 11.7792C24.7357 15.9702 20.4432 16.2649 20.4432 16.2649C24.0668 15.1107 24.3296 11.7792 24.3296 11.7792ZM22.0121 11.3535C21.9325 10.9524 21.7971 10.5595 21.6219 10.2075C23.6686 12.3358 22.2908 16.1912 19.3761 16.3304C21.2715 15.651 22.4581 13.4163 22.0201 11.3453L22.0121 11.3535Z" fill="#003399"/>
<path d="M38.8951 23.9431C38.5288 23.9431 38.266 23.8858 38.0988 23.7712C37.9315 23.6566 37.828 23.5093 37.7882 23.321C37.7483 23.1327 37.7324 22.9281 37.7324 22.6989V11.1571C37.7324 10.7069 37.82 10.3877 37.9952 10.2158C38.1704 10.0439 38.489 9.95386 38.9589 9.95386H46.5484C46.7714 9.95386 46.9704 9.97841 47.1457 10.0275C47.3209 10.0766 47.4562 10.1831 47.5677 10.3468C47.6713 10.5105 47.727 10.7888 47.727 11.1735C47.727 11.5582 47.6713 11.8202 47.5598 11.9921C47.4483 12.164 47.3049 12.2704 47.1297 12.3113C46.9545 12.3522 46.7554 12.3686 46.5324 12.3686H40.0897V15.7329H44.5256C44.7485 15.7329 44.9317 15.7575 45.091 15.8066C45.2503 15.8557 45.3697 15.9539 45.4573 16.0931C45.5449 16.2404 45.5927 16.486 45.5927 16.8298C45.5927 17.1736 45.5449 17.411 45.4573 17.5583C45.3697 17.7138 45.2343 17.8039 45.0671 17.8366C44.8999 17.8694 44.7008 17.8857 44.4857 17.8857H40.0897V21.4874H46.5484C46.7714 21.4874 46.9704 21.512 47.1457 21.5611C47.3209 21.6102 47.4562 21.7166 47.5677 21.8885C47.6713 22.0604 47.727 22.3387 47.727 22.7071C47.727 23.0754 47.6713 23.3537 47.5598 23.5256C47.4483 23.6975 47.3049 23.8121 47.1297 23.8531C46.9545 23.9022 46.7554 23.9267 46.5324 23.9267H38.9031L38.8951 23.9431Z" fill="#003399"/>
<path d="M57.4827 23.9024C57.1084 23.9024 56.8297 23.8287 56.6465 23.6813C56.4634 23.534 56.3758 23.3375 56.3758 23.0838L56.5111 22.4208C56.4076 22.5927 56.2324 22.7973 55.9855 23.0347C55.7387 23.2721 55.4121 23.4767 55.0139 23.6568C54.6078 23.8369 54.122 23.9269 53.5566 23.9269C52.9434 23.9269 52.37 23.7959 51.8364 23.534C51.2948 23.2721 50.825 22.9119 50.4188 22.4535C50.0127 21.9951 49.6862 21.463 49.4472 20.8737C49.2083 20.2843 49.0889 19.6458 49.0889 18.9664C49.0889 18.287 49.2083 17.6976 49.4472 17.1165C49.6862 16.5353 50.0127 16.0196 50.4268 15.5694C50.8409 15.1192 51.3187 14.759 51.8603 14.4971C52.4018 14.2351 52.9672 14.1041 53.5645 14.1041C54.0981 14.1041 54.5441 14.1778 54.9184 14.3252C55.2847 14.4725 55.6033 14.6526 55.8661 14.8736C56.1289 15.0946 56.3359 15.3238 56.5111 15.5612L56.3917 14.98C56.3917 14.6853 56.4793 14.4643 56.6625 14.3088C56.8456 14.1533 57.1323 14.0796 57.5225 14.0796C57.8889 14.0796 58.1437 14.1369 58.303 14.2515C58.4623 14.3661 58.5578 14.5216 58.5977 14.7099C58.6375 14.9063 58.6534 15.1192 58.6534 15.3565V22.6827C58.6534 22.9119 58.6375 23.1165 58.5977 23.3048C58.5578 23.4931 58.4543 23.6404 58.295 23.7468C58.1358 23.8532 57.873 23.9105 57.5066 23.9105L57.4827 23.9024ZM53.907 21.5858C54.345 21.5858 54.7432 21.4712 55.0936 21.242C55.444 21.0128 55.7227 20.7018 55.9378 20.3089C56.1528 19.916 56.2563 19.4821 56.2563 18.9992C56.2563 18.4753 56.1448 18.0251 55.9218 17.6403C55.6988 17.2556 55.4121 16.9527 55.0538 16.7317C54.6954 16.5107 54.2972 16.4043 53.8592 16.4043C53.3814 16.4043 52.9513 16.5189 52.577 16.7563C52.2027 16.9937 51.9081 17.3047 51.693 17.6976C51.478 18.0906 51.3745 18.5326 51.3745 19.0319C51.3745 19.5312 51.486 19.9487 51.709 20.3334C51.932 20.7181 52.2346 21.0292 52.6168 21.2502C52.9991 21.4794 53.4291 21.594 53.9149 21.594L53.907 21.5858Z" fill="#003399"/>
<path d="M64.5546 23.6812C63.9414 23.6812 63.376 23.5584 62.8503 23.3211C62.3247 23.0837 61.8628 22.7399 61.4646 22.2979C61.0665 21.8558 60.7559 21.3483 60.5329 20.7671C60.3019 20.186 60.1904 19.5557 60.1904 18.8763C60.1904 18.1969 60.3019 17.5911 60.5329 17.0181C60.7559 16.4451 61.0744 15.9376 61.4646 15.4956C61.8628 15.0536 62.3247 14.7098 62.8503 14.4642C63.376 14.2186 63.9334 14.0958 64.5307 14.0958C65.128 14.0958 65.6218 14.2104 66.0598 14.4478C66.4978 14.6852 66.8561 15.0126 67.1428 15.4383C67.4295 15.8639 67.6446 16.3715 67.7959 16.9608C67.9472 17.5502 68.0189 18.1969 68.0189 18.9008C68.0189 19.8749 67.8914 20.718 67.6286 21.4384C67.3658 22.1587 66.9836 22.7153 66.4818 23.1C65.9722 23.4848 65.3351 23.6812 64.5546 23.6812ZM64.7696 27.9459C64.2998 27.9459 63.8538 27.8886 63.4237 27.774C62.9937 27.6594 62.6114 27.5121 62.269 27.3238C61.9265 27.1356 61.6558 26.9391 61.4487 26.7263C61.2496 26.5135 61.1461 26.3088 61.1461 26.1287C61.1461 25.9487 61.1779 25.7849 61.2337 25.6458C61.2894 25.5148 61.377 25.3757 61.4965 25.2447C61.6558 25.081 61.7752 24.9664 61.8788 24.8845C61.9743 24.8027 62.1097 24.7617 62.277 24.7617C62.4203 24.7617 62.5557 24.8108 62.699 24.9254C62.8344 25.0319 62.9937 25.1546 63.1769 25.2856C63.36 25.4166 63.5751 25.5394 63.8379 25.6458C64.1007 25.7522 64.4272 25.8095 64.8333 25.8095C65.1678 25.8095 65.4784 25.7522 65.7651 25.6294C66.0518 25.5066 66.2907 25.3347 66.4978 25.0973C66.6969 24.86 66.8561 24.5898 66.9756 24.2706C67.0951 23.9514 67.1508 23.5912 67.1508 23.1901L67.1349 14.9062C67.1588 14.6034 67.2623 14.3823 67.4455 14.2596C67.6286 14.1368 67.9074 14.0713 68.2817 14.0713C68.6321 14.0713 68.8869 14.1204 69.0382 14.2186C69.1975 14.3169 69.2931 14.456 69.3329 14.6361C69.3727 14.8162 69.3886 15.0126 69.3886 15.2255V23.3292C69.3886 24.066 69.2612 24.7126 69.0223 25.2938C68.7754 25.8668 68.4409 26.3497 68.0109 26.7427C67.5809 27.1356 67.0951 27.4384 66.5376 27.6431C65.9881 27.8477 65.3988 27.9541 64.7776 27.9541L64.7696 27.9459ZM64.7696 21.422C65.2076 21.422 65.6058 21.3156 65.9483 21.0946C66.2907 20.8736 66.5615 20.5707 66.7685 20.186C66.9676 19.8012 67.0712 19.3674 67.0712 18.8844C67.0712 18.4015 66.9676 17.9513 66.7685 17.5747C66.5694 17.1982 66.2907 16.8953 65.9403 16.6825C65.5899 16.4697 65.1917 16.3633 64.7537 16.3633C64.3157 16.3633 63.9175 16.4697 63.5751 16.6907C63.2326 16.9117 62.9618 17.2064 62.7707 17.5829C62.5796 17.9595 62.476 18.3933 62.476 18.8844C62.476 19.3756 62.5796 19.8176 62.7787 20.1941C62.9778 20.5707 63.2485 20.8736 63.5989 21.0946C63.9414 21.3156 64.3316 21.422 64.7776 21.422H64.7696Z" fill="#003399"/>
<path d="M74.812 23.9431C74.3342 23.9431 73.9041 23.9104 73.5378 23.8449C73.1715 23.7794 72.8529 23.6648 72.5822 23.5011C72.3193 23.3374 72.0964 23.1245 71.9291 22.8544C71.7619 22.5843 71.6345 22.2405 71.5469 21.8476C71.4592 21.4465 71.4194 20.9635 71.4194 20.4069V10.7642C71.4194 10.535 71.4433 10.3304 71.4911 10.1503C71.5389 9.97022 71.6424 9.82287 71.8017 9.70828C71.961 9.59368 72.2238 9.53638 72.5901 9.53638C72.9564 9.53638 73.2193 9.59368 73.3785 9.70009C73.5378 9.8065 73.6413 9.95384 73.6891 10.1339C73.7369 10.314 73.7608 10.5187 73.7608 10.7479V20.3087C73.7608 20.5624 73.7767 20.7753 73.8086 20.939C73.8404 21.1027 73.8962 21.2418 73.9838 21.3401C74.0714 21.4383 74.1749 21.512 74.3183 21.5529C74.4536 21.5938 74.6209 21.6102 74.812 21.6102C74.9793 21.6102 75.1306 21.6266 75.266 21.6675C75.4013 21.7084 75.5128 21.8067 75.6004 21.9704C75.688 22.1341 75.7279 22.3878 75.7279 22.748C75.7279 23.1082 75.688 23.3947 75.6004 23.5666C75.5128 23.7385 75.4013 23.8449 75.258 23.8858C75.1146 23.9267 74.9633 23.9431 74.812 23.9431Z" fill="#003399"/>
<path d="M81.7562 24.066C80.9121 24.066 80.1794 23.9269 79.5503 23.6485C78.9211 23.3702 78.3955 22.9855 77.9734 22.4944C77.5513 22.0114 77.2328 21.463 77.0178 20.8572C76.8027 20.2515 76.6992 19.6212 76.6992 18.9664C76.6992 18.0086 76.9142 17.1491 77.3443 16.4043C77.7743 15.6594 78.3637 15.07 79.1282 14.6443C79.8847 14.2187 80.7608 14.0059 81.7483 14.0059C82.4491 14.0059 83.0623 14.1205 83.5959 14.3497C84.1295 14.5789 84.5754 14.8735 84.9258 15.2419C85.2842 15.6102 85.555 16.0113 85.7461 16.4534C85.9372 16.8954 86.0248 17.321 86.0248 17.7303C86.0248 18.4343 85.8576 18.95 85.5311 19.2692C85.1966 19.5885 84.7905 19.7522 84.2967 19.7522H79.16C79.176 20.2024 79.3114 20.5953 79.5821 20.9309C79.8449 21.2665 80.1874 21.5203 80.5935 21.7004C80.9997 21.8804 81.4218 21.9705 81.8518 21.9705C82.1783 21.9705 82.465 21.9541 82.7199 21.9132C82.9747 21.8723 83.1897 21.8231 83.3729 21.7658C83.5561 21.7085 83.7153 21.6431 83.8507 21.5776C83.9861 21.5121 84.1135 21.4548 84.233 21.3975C84.3524 21.3402 84.456 21.3074 84.5675 21.2993C84.7108 21.2829 84.8542 21.3156 84.9975 21.3975C85.1409 21.4793 85.2603 21.6185 85.3479 21.815C85.4276 21.9459 85.4833 22.0687 85.5152 22.1833C85.547 22.2979 85.5629 22.4043 85.5629 22.5107C85.5629 22.7809 85.4037 23.0264 85.0931 23.2638C84.7825 23.5012 84.3445 23.6895 83.7791 23.845C83.2136 24.0005 82.5526 24.0742 81.7801 24.0742L81.7562 24.066ZM79.1521 18.3197H83.1419C83.3649 18.3197 83.5322 18.2869 83.6516 18.2133C83.7711 18.1396 83.8268 17.9841 83.8268 17.7467C83.8268 17.4438 83.7392 17.1655 83.5561 16.9199C83.3729 16.6744 83.126 16.4779 82.8154 16.3388C82.5048 16.1996 82.1385 16.1259 81.7244 16.1259C81.2466 16.1259 80.8085 16.2242 80.4183 16.4124C80.0281 16.6089 79.7175 16.8708 79.4945 17.2064C79.2636 17.5421 79.1521 17.9104 79.1521 18.3279V18.3197Z" fill="#003399"/>
<path d="M88.9 23.9267C88.5337 23.9267 88.2709 23.8694 88.1036 23.763C87.9364 23.6566 87.8329 23.5093 87.7931 23.3128C87.7532 23.1164 87.7373 22.9199 87.7373 22.6989V11.1571C87.7373 10.9443 87.7612 10.7479 87.809 10.5678C87.8568 10.3877 87.9603 10.2404 88.1275 10.1258C88.2948 10.0112 88.5655 9.95386 88.9239 9.95386H93.0492C93.6226 9.95386 94.18 10.0521 94.7216 10.2567C95.2631 10.4532 95.7569 10.7561 96.1949 11.1571C96.6329 11.5582 96.9753 12.0494 97.2302 12.6387C97.485 13.2281 97.6124 13.9157 97.6124 14.7015C97.6124 15.4873 97.485 16.1504 97.2302 16.7316C96.9753 17.3127 96.6329 17.8039 96.1869 18.205C95.7489 18.6061 95.2551 18.9089 94.7136 19.1054C94.1721 19.3019 93.6146 19.4083 93.0332 19.4083H90.0946V22.7316C90.0946 22.9445 90.0707 23.1491 90.0229 23.3292C89.9751 23.5175 89.8716 23.6648 89.7123 23.7712C89.5531 23.8776 89.2823 23.9349 88.908 23.9349L88.9 23.9267ZM90.0866 16.9608H93.0492C93.4474 16.9608 93.8217 16.8789 94.1482 16.707C94.4827 16.5433 94.7455 16.2895 94.9525 15.9457C95.1596 15.6019 95.2631 15.1763 95.2631 14.6524C95.2631 14.1858 95.1675 13.7847 94.9844 13.4409C94.7932 13.0971 94.5384 12.8352 94.2039 12.6469C93.8694 12.4587 93.4792 12.3686 93.0253 12.3686H90.0866V16.9526V16.9608Z" fill="#003399"/>
<path d="M103.753 24.0658C103.131 24.0658 102.526 23.943 101.929 23.6975C101.34 23.4519 100.806 23.0999 100.336 22.6497C99.8583 22.1995 99.484 21.6592 99.2053 21.0453C98.9266 20.4314 98.7832 19.7602 98.7832 19.0235C98.7832 18.2868 98.9106 17.6565 99.1734 17.0425C99.4362 16.4286 99.7866 15.8884 100.241 15.4218C100.695 14.9552 101.22 14.595 101.809 14.3331C102.399 14.0712 103.036 13.9402 103.705 13.9402C104.613 13.9402 105.441 14.1612 106.174 14.6114C106.914 15.0616 107.504 15.6592 107.942 16.4204C108.38 17.1817 108.603 18.0412 108.603 18.9989C108.603 19.7602 108.467 20.4478 108.196 21.0699C107.926 21.692 107.551 22.2241 107.089 22.6743C106.62 23.1245 106.102 23.4683 105.521 23.7057C104.939 23.943 104.35 24.0658 103.737 24.0658H103.753ZM103.713 21.7084C104.143 21.7084 104.549 21.6019 104.947 21.3809C105.345 21.1599 105.664 20.8407 105.919 20.4314C106.174 20.0221 106.301 19.531 106.301 18.9744C106.301 18.4505 106.19 17.9921 105.959 17.591C105.728 17.1899 105.425 16.8788 105.035 16.6496C104.645 16.4204 104.199 16.3058 103.689 16.3058C103.179 16.3058 102.773 16.4204 102.383 16.6578C101.993 16.8952 101.682 17.2144 101.459 17.6155C101.228 18.0248 101.117 18.4832 101.117 18.9825C101.117 19.5392 101.236 20.0303 101.483 20.4314C101.73 20.8407 102.048 21.1517 102.447 21.3727C102.845 21.5938 103.259 21.7002 103.705 21.7002L103.713 21.7084Z" fill="#003399"/>
<path d="M113.484 24.0659C113.15 24.0659 112.792 24.025 112.417 23.9595C112.043 23.8858 111.677 23.7794 111.326 23.6403C110.976 23.5011 110.673 23.3374 110.418 23.1409C110.163 22.9445 110.004 22.7317 109.941 22.4943C109.885 22.3633 109.869 22.2323 109.885 22.1014C109.901 21.9786 109.933 21.8394 110.004 21.7003C110.068 21.5611 110.163 21.4138 110.299 21.2664C110.418 21.1191 110.538 21.0372 110.657 21.0127C110.777 20.9963 110.936 21.0372 111.135 21.1436C111.302 21.2091 111.485 21.2992 111.693 21.4056C111.892 21.512 112.099 21.6184 112.314 21.7248C112.529 21.8312 112.752 21.9213 112.975 21.9868C113.198 22.0523 113.429 22.085 113.644 22.085C114.122 22.085 114.504 22.0031 114.79 21.8312C115.077 21.6675 115.221 21.4301 115.221 21.1191C115.221 20.9472 115.173 20.7917 115.085 20.6607C114.998 20.5297 114.87 20.4151 114.727 20.3333C114.575 20.2432 114.4 20.1696 114.201 20.0959C114.002 20.0222 113.787 19.9567 113.556 19.8994C113.325 19.8421 113.094 19.7685 112.847 19.6866C112.521 19.5966 112.194 19.482 111.876 19.3428C111.549 19.2118 111.262 19.0399 111.008 18.8189C110.753 18.6061 110.554 18.336 110.394 18.0167C110.235 17.6975 110.163 17.2964 110.163 16.8134C110.163 16.2159 110.299 15.7002 110.586 15.2827C110.864 14.8653 111.27 14.5378 111.804 14.3086C112.338 14.0794 112.975 13.9648 113.731 13.9648C113.994 13.9648 114.241 13.9812 114.48 14.0221C114.719 14.0631 114.95 14.1204 115.181 14.194C115.404 14.2677 115.627 14.3578 115.842 14.4642C116.057 14.5706 116.264 14.6934 116.455 14.8243C116.781 15.0126 116.949 15.2254 116.965 15.471C116.981 15.7166 116.885 15.9785 116.694 16.265C116.55 16.4533 116.407 16.5842 116.264 16.6579C116.12 16.7316 115.969 16.7316 115.818 16.6661C115.611 16.5597 115.388 16.4451 115.149 16.3141C114.91 16.1913 114.663 16.0767 114.408 15.9867C114.153 15.8967 113.891 15.8475 113.62 15.8475C113.349 15.8475 113.126 15.8885 112.919 15.9703C112.712 16.0522 112.553 16.1668 112.449 16.3141C112.346 16.4615 112.29 16.6334 112.29 16.838C112.29 17.0263 112.338 17.1818 112.449 17.2964C112.553 17.4192 112.688 17.5174 112.855 17.5993C113.023 17.6811 113.222 17.7466 113.461 17.8121C113.691 17.8694 113.938 17.9267 114.201 17.984C114.567 18.0658 114.934 18.1641 115.308 18.2869C115.682 18.4096 116.033 18.5734 116.351 18.7862C116.67 18.999 116.925 19.2855 117.124 19.6375C117.315 19.9895 117.419 20.4479 117.419 21.0045C117.419 21.9786 117.068 22.7317 116.375 23.2637C115.682 23.7958 114.727 24.0659 113.5 24.0659H113.484Z" fill="#003399"/>
<path d="M119.13 14.2841L121.137 14.3005L123.821 14.2186C124.044 14.2186 124.243 14.2432 124.418 14.2923C124.594 14.3414 124.729 14.4478 124.84 14.6115C124.944 14.7752 125 15.0453 125 15.4219C125 15.7657 124.944 16.0276 124.84 16.1995C124.737 16.3714 124.602 16.486 124.434 16.527C124.267 16.5761 124.068 16.6006 123.853 16.6006L121.241 16.5597L119.083 16.5761C118.756 16.5597 118.533 16.4697 118.414 16.2896C118.286 16.1095 118.23 15.8148 118.23 15.3973C118.23 15.0126 118.302 14.7261 118.453 14.546C118.605 14.3659 118.836 14.2759 119.146 14.2759L119.13 14.2841ZM123.51 23.9431C122.873 23.9431 122.332 23.8777 121.878 23.7467C121.424 23.6157 121.058 23.4029 120.771 23.1246C120.484 22.8463 120.277 22.4779 120.142 22.0359C120.006 21.5857 119.935 21.0618 119.935 20.4479V11.9676C119.935 11.7302 119.959 11.5173 120.006 11.3454C120.054 11.1735 120.158 11.0344 120.317 10.9362C120.476 10.8379 120.739 10.7888 121.089 10.7888C121.44 10.7888 121.719 10.8461 121.878 10.9525C122.037 11.0589 122.141 11.2063 122.188 11.3864C122.236 11.5665 122.26 11.7629 122.26 11.9757V20.3824C122.26 20.6607 122.284 20.8899 122.332 21.0618C122.38 21.2337 122.451 21.3647 122.547 21.4547C122.642 21.5447 122.77 21.602 122.937 21.6348C123.096 21.6675 123.295 21.6839 123.534 21.6839C123.781 21.6839 123.988 21.7003 124.164 21.7412C124.339 21.7821 124.474 21.8804 124.562 22.0277C124.649 22.1832 124.697 22.4288 124.697 22.7808C124.697 23.1573 124.641 23.4274 124.53 23.5912C124.418 23.7549 124.275 23.8613 124.1 23.9022C123.925 23.9431 123.733 23.9595 123.526 23.9595L123.51 23.9431Z" fill="#003399"/>
</svg>
